<svg width="350" height="350" viewBox="0 0 350 350" fill="none" xmlns="http://www.w3.org/2000/svg">
<path d="M36.001 216.363L26.782 246.743H51.751L61.25 216.524L36.001 216.363Z" fill="#263238" stroke="#263238" stroke-linecap="round" stroke-linejoin="round"/>
<path d="M94.22 246.694H42.189L36.001 216.363H88.032L94.22 246.694Z" fill="white" stroke="#263238" stroke-linecap="round" stroke-linejoin="round"/>
<path d="M88.858 241.563H45.458L42.217 225.694H85.617L88.858 241.563Z" stroke="#263238" stroke-linecap="round" stroke-linejoin="round"/>
<path d="M45.948 225.757L49.161 241.493" stroke="#263238" stroke-linecap="round" stroke-linejoin="round"/>
<path d="M49.931 225.757L53.144 241.493" stroke="#263238" stroke-linecap="round" stroke-linejoin="round"/>
<path d="M53.914 225.757L57.127 241.493" stroke="#263238" stroke-linecap="round" stroke-linejoin="round"/>
<path d="M57.89 225.757L61.103 241.493" stroke="#263238" stroke-linecap="round" stroke-linejoin="round"/>
<path d="M61.873 225.757L65.086 241.493" stroke="#263238" stroke-linecap="round" stroke-linejoin="round"/>
<path d="M65.856 225.757L69.069 241.493" stroke="#263238" stroke-linecap="round" stroke-linejoin="round"/>
<path d="M69.832 225.757L73.045 241.493" stroke="#263238" stroke-linecap="round" stroke-linejoin="round"/>
<path d="M73.815 225.757L77.028 241.493" stroke="#263238" stroke-linecap="round" stroke-linejoin="round"/>
<path d="M77.791 225.757L81.004 241.493" stroke="#263238" stroke-linecap="round" stroke-linejoin="round"/>
<path d="M81.774 225.757L84.987 241.493" stroke="#263238" stroke-linecap="round" stroke-linejoin="round"/>
<path d="M42.959 228.83H86.114" stroke="#263238" stroke-linecap="round" stroke-linejoin="round"/>
<path d="M43.603 231.994H86.758" stroke="#263238" stroke-linecap="round" stroke-linejoin="round"/>
<path d="M44.254 235.165H87.402" stroke="#263238" stroke-linecap="round" stroke-linejoin="round"/>
<path d="M44.898 238.329H88.053" stroke="#263238" stroke-linecap="round" stroke-linejoin="round"/>
<path d="M61.124 222.95H41.853L41.545 221.41H60.809L61.124 222.95Z" fill="#263238"/>
<path d="M324.1 169.141H261.338C258.385 169.211 255.554 170.334 253.356 172.308C251.158 174.283 249.739 176.978 249.354 179.907L241.654 247.968H315.154L324.1 169.141Z" fill="white" stroke="#263238" stroke-linecap="round" stroke-linejoin="round"/>
<path d="M324.429 169.141C321.975 169.199 319.623 170.132 317.797 171.773C315.972 173.414 314.793 175.653 314.475 178.087L306.558 247.968H324.436L332.36 178.087C332.523 176.96 332.439 175.812 332.112 174.721C331.786 173.631 331.226 172.625 330.471 171.773C329.716 170.921 328.784 170.245 327.741 169.79C326.697 169.335 325.567 169.114 324.429 169.141Z" fill="#263238" stroke="#263238" stroke-linecap="round" stroke-linejoin="round"/>
<path d="M241.003 148.694C236.592 151.843 231.825 154.461 226.8 156.492C217.889 160.202 214.305 161.322 214.305 161.322L216.776 246.582H281.47C281.47 246.582 273.175 193.123 273.175 175.182C273.175 157.241 273.917 153.741 273.917 153.741L252.637 148.295L241.003 148.694Z" fill="#FFD71A" stroke="#263238" stroke-linecap="round" stroke-linejoin="round"/>
<path d="M233.947 152.284C231.93 166.765 230.733 181.348 230.363 195.964C229.992 217.867 234.199 247.064 234.199 247.064H186.802C192.696 235.914 196.911 223.955 199.311 211.574C202.811 193.843 205.611 163.785 206.353 163.414C207.095 163.043 232.218 153.74 233.947 152.284Z" fill="#263238" stroke="#263238" stroke-linecap="round" stroke-linejoin="round"/>
<path d="M212.422 247.071C212.422 247.071 207.592 214.402 207.837 206.73C208.082 199.058 209.3 173.074 209.3 173.074" stroke="#616161" stroke-linecap="round" stroke-linejoin="round"/>
<path d="M260.554 150.059C260.554 150.059 254.492 177.898 253.995 200.795C253.498 223.692 251.895 247.198 251.895 247.198H290.22C290.22 247.198 290.717 226.282 290.22 219.107C289.723 211.932 289.723 213.416 289.723 213.416L304.577 217.252C304.577 217.252 295.043 171.339 293.314 166.271C291.585 161.203 292.446 159.586 291.333 158.718C290.22 157.85 260.554 150.059 260.554 150.059Z" fill="#263238" stroke="#263238" stroke-linecap="round" stroke-linejoin="round"/>
<path d="M191.331 228.144C192.33 229.675 193.505 231.085 194.831 232.344C196.532 233.8 200.179 233.044 202.118 235.032C204.057 237.02 201.936 243.089 199.486 245.21C195.286 248.829 197.512 237.846 197.512 237.846C196.031 238.861 194.395 239.629 192.668 240.121C190.288 240.667 184.163 238.805 182.112 238.721C180.061 238.637 177.212 238.245 176.12 235.963C175.028 233.681 181.804 230.93 184.814 229.838C186.94 229.108 189.119 228.541 191.331 228.144Z" fill="white" stroke="#263238" stroke-linecap="round" stroke-linejoin="round"/>
<path d="M178.367 231.364C177.72 231.191 177.036 231.212 176.4 231.423C175.765 231.635 175.205 232.028 174.79 232.554C173.39 234.395 170.59 242.711 171.409 244.314C172.228 245.917 174.349 243.67 175.357 241.031C175.787 239.759 176.36 238.54 177.065 237.398C177.065 237.398 178.171 237.937 178.948 236.495C179.725 235.053 180.509 232.89 178.367 231.364Z" fill="white" stroke="#263238" stroke-linecap="round" stroke-linejoin="round"/>
<path d="M182.329 229.914C181.651 229.524 180.858 229.381 180.087 229.508C179.315 229.636 178.611 230.027 178.094 230.614C176.127 232.714 177.478 241.542 178.521 244.244C179.564 246.946 181.538 246.61 181.832 244.944C182.126 243.278 182.462 234.968 182.567 233.043C182.654 231.994 182.574 230.938 182.329 229.914Z" fill="white" stroke="#263238" stroke-linecap="round" stroke-linejoin="round"/>
<path d="M186.529 228.963C185.86 228.542 185.059 228.38 184.279 228.509C183.498 228.638 182.792 229.049 182.294 229.663C180.341 231.882 181.783 241.22 182.854 244.09C183.925 246.96 185.899 246.624 186.179 244.839C186.459 243.054 186.711 234.283 186.795 232.239C186.867 231.14 186.777 230.036 186.529 228.963Z" fill="white" stroke="#263238" stroke-linecap="round" stroke-linejoin="round"/>
<path d="M192.675 230.096C192.675 230.096 191.044 226.449 188.384 227.051C185.724 227.653 184.884 231.251 185.374 236.711C185.864 242.171 186.886 246.511 188.37 246.665C189.854 246.819 191.471 243.522 191.765 239.259C192.059 234.996 192.5 232.448 192.5 232.448" fill="white"/>
<path d="M192.675 230.096C192.675 230.096 191.044 226.449 188.384 227.051C185.724 227.653 184.884 231.251 185.374 236.711C185.864 242.171 186.886 246.511 188.37 246.665C189.854 246.819 191.471 243.522 191.765 239.259C192.059 234.996 192.5 232.448 192.5 232.448" stroke="#263238" stroke-linecap="round" stroke-linejoin="round"/>
<path d="M226.877 191.939H210.378V217.265H226.877V191.939Z" fill="#FFD71A" stroke="#263238" stroke-linecap="round" stroke-linejoin="round"/>
<path d="M219.779 184.562H216.741V196.28H219.779V184.562Z" fill="white" stroke="#263238" stroke-linecap="round" stroke-linejoin="round"/>
<path d="M221.515 199.03H214.424V208.291H221.515V199.03Z" fill="white" stroke="#263238" stroke-linecap="round" stroke-linejoin="round"/>
<path d="M213.269 211.043H222.964" stroke="#263238" stroke-linecap="round" stroke-linejoin="round"/>
<path d="M211.82 213.065H224.266" stroke="#263238" stroke-linecap="round" stroke-linejoin="round"/>
<path d="M239.274 145.109C239.274 145.109 233.947 148.693 232.974 151.542C232.001 154.391 227.899 166.515 226.289 171.093C224.679 175.671 215.523 179.633 216.762 180.501C218.001 181.369 230.006 182.475 230.006 182.475C230.006 182.475 232.729 193.122 233.345 195.845C233.961 198.568 237.678 206.856 237.678 206.856C237.678 206.856 248.689 193.612 250.425 190.056C251.618 187.651 252.982 185.336 254.506 183.126C254.506 183.126 259.21 184.239 262.206 184.736C265.202 185.233 273.343 185.968 272.972 184.61C272.601 183.252 268.52 177.309 266.91 171.492C265.3 165.675 266.287 152.928 264.313 147.979C262.339 143.03 258.013 142.288 256.515 141.917C255.017 141.546 241.5 143.002 239.274 145.109Z" fill="#FFD71A" stroke="#263238" stroke-linecap="round" stroke-linejoin="round"/>
<path d="M237.538 141.273C237.538 141.273 239.148 150.303 238.938 157.604C238.728 164.905 236.089 181.243 236.215 189.657C236.34 195.247 236.794 200.824 237.573 206.359C237.573 206.359 249.704 189.657 254.156 176.042C258.608 162.427 259.847 150.8 259.847 149.932C259.847 149.064 260.092 128.897 260.092 128.897C260.092 128.897 247.191 142.386 237.538 141.273Z" fill="white" stroke="#263238" stroke-linecap="round" stroke-linejoin="round"/>
<path d="M259.959 137.458C260.008 132.922 260.057 128.897 260.057 128.897C260.057 128.897 247.191 142.386 237.538 141.273C237.538 141.273 237.993 143.814 238.378 147.293C239.641 148.158 241.042 148.8 242.522 149.19C246.988 150.086 251.993 147.587 255.388 143.296C256.641 141.714 258.3 139.558 259.959 137.458Z" fill="#263238" stroke="#263238" stroke-linecap="round" stroke-linejoin="round"/>
<path d="M268.786 96.4736C275.586 96.4736 281.099 91.0173 281.099 84.2866C281.099 77.5559 275.586 72.0996 268.786 72.0996C261.986 72.0996 256.473 77.5559 256.473 84.2866C256.473 91.0173 261.986 96.4736 268.786 96.4736Z" fill="#263238" stroke="#263238" stroke-linecap="round" stroke-linejoin="round"/>
<path d="M218.925 105.581C218.925 105.581 212.317 103.789 211.225 100.219C210.133 96.6489 214.088 84.1189 226.954 77.6999C239.82 71.2809 251.622 74.8369 256.802 76.2649C261.982 77.6929 265.741 80.3809 269.136 89.8519C272.531 99.3229 272.706 106.652 271.635 110.222C270.998 112.357 270.222 114.447 269.311 116.48C269.311 116.48 262.703 117.18 260.911 114.513C259.119 111.846 259.84 98.4129 252.154 95.2139C244.468 92.0149 229.817 93.8139 226.254 96.9989C222.691 100.184 218.925 105.581 218.925 105.581Z" fill="#263238" stroke="#263238" stroke-linecap="round" stroke-linejoin="round"/>
<path d="M217.854 103.257C217.854 103.257 219.464 113.442 219.464 118.979C219.464 124.516 223.93 132.209 226.254 134.379C228.578 136.549 236.264 143.85 240.73 144.746C245.196 145.642 250.201 143.136 253.596 138.845C256.991 134.554 263.606 125.979 263.606 125.979C265.081 126.143 266.567 125.787 267.807 124.971C269.047 124.156 269.963 122.932 270.396 121.513C272.188 116.326 271.292 110.432 268.254 109.718C265.216 109.004 263.074 112.574 263.074 112.574C263.074 112.574 260.568 102.928 257.355 98.098L252.707 91.098L258.636 83.685C258.701 83.6045 258.748 83.5115 258.776 83.4119C258.803 83.3122 258.81 83.208 258.795 83.1057C258.781 83.0033 258.746 82.905 258.692 82.8169C258.638 82.7287 258.567 82.6525 258.482 82.593C258.323 82.4788 258.125 82.4303 257.931 82.4577C257.737 82.485 257.561 82.5861 257.439 82.74L251.636 90.209C251.636 90.209 240.198 88.242 230.188 93.247C220.178 98.252 217.854 103.257 217.854 103.257Z" fill="white" stroke="#263238" stroke-linecap="round" stroke-linejoin="round"/>
<path d="M254.576 113.315L252.966 115.464" stroke="#263238" stroke-linecap="round" stroke-linejoin="round"/>
<path d="M232.512 125.594C232.512 125.594 232.869 126.665 235.193 127.204C236.277 127.456 237.412 127.388 238.458 127.007C239.504 126.627 240.418 125.951 241.087 125.062" stroke="#263238" stroke-linecap="round" stroke-linejoin="round"/>
<path d="M235.2 131.341C237.404 131.838 239.699 131.753 241.86 131.096C244.021 130.438 245.974 129.229 247.527 127.589C247.527 127.589 245.924 134.379 242.704 135.632C239.484 136.885 239.309 133.483 239.309 133.483L235.2 131.341Z" stroke="#263238" stroke-linecap="round" stroke-linejoin="round"/>
<path d="M241.626 117.733C243.107 116.338 244.909 115.332 246.873 114.802C248.837 114.272 250.901 114.235 252.882 114.695" stroke="#263238" stroke-width="2" stroke-linecap="round" stroke-linejoin="round"/>
<path d="M230.006 117.376C230.006 117.376 226.079 113.442 221.963 115.584" stroke="#263238" stroke-width="2" stroke-linecap="round" stroke-linejoin="round"/>
<path d="M220.717 114.694L222.677 116.661" stroke="#263238" stroke-linecap="round" stroke-linejoin="round"/>
<path d="M240.373 108.08C240.373 108.08 245.7 101.941 253.4 107.723" stroke="#263238" stroke-linecap="round" stroke-linejoin="round"/>
<path d="M229.649 107.898C229.649 107.898 224.826 104.146 219.996 108.437" stroke="#263238" stroke-linecap="round" stroke-linejoin="round"/>
<path d="M245.833 116.773C245.84 116.948 245.794 117.12 245.701 117.268C245.609 117.416 245.474 117.533 245.314 117.603C245.154 117.673 244.976 117.693 244.805 117.66C244.633 117.628 244.475 117.545 244.352 117.421C244.228 117.298 244.145 117.14 244.113 116.968C244.08 116.797 244.101 116.619 244.171 116.459C244.241 116.3 244.357 116.164 244.505 116.072C244.653 115.979 244.826 115.933 245 115.94C245.218 115.949 245.425 116.039 245.579 116.194C245.734 116.348 245.824 116.555 245.833 116.773Z" fill="#263238"/>
<path d="M225.4 116.025C225.401 116.197 225.352 116.366 225.257 116.509C225.163 116.653 225.028 116.765 224.869 116.832C224.711 116.899 224.536 116.917 224.367 116.884C224.198 116.852 224.043 116.769 223.921 116.648C223.799 116.527 223.715 116.373 223.681 116.204C223.647 116.035 223.664 115.861 223.729 115.702C223.795 115.543 223.906 115.407 224.049 115.311C224.192 115.215 224.36 115.164 224.532 115.164C224.761 115.164 224.981 115.255 225.143 115.416C225.306 115.577 225.398 115.796 225.4 116.025Z" fill="#263238"/>
<path d="M267.631 98.5947C267.631 98.5947 268.247 106.638 266.763 112.7L269.115 113.442C269.115 113.442 270.97 104.16 270.102 98.9657L267.631 98.5947Z" fill="#FFD71A" stroke="#263238" stroke-linecap="round" stroke-linejoin="round"/>
<path d="M251.643 75.0674C254.231 76.3586 256.537 78.15 258.428 80.3379C260.319 82.5259 261.758 85.067 262.661 87.8144C265.503 96.9704 265.132 99.8194 266.861 100.806C268.59 101.793 271.936 102.416 272.055 100.19C272.174 97.9644 271.404 88.0314 266.455 81.8714C262.745 77.1814 254.737 75.1934 251.643 75.0674Z" fill="#FFD71A" stroke="#263238" stroke-linecap="round" stroke-linejoin="round"/>
<path d="M268.611 110.929C265.048 109.837 261.135 112.329 259.861 116.466C258.685 120.295 260.183 124.201 263.221 125.643C260.991 131.31 257.673 136.487 253.456 140.882C252.635 140.781 251.806 140.99 251.132 141.47C249.858 142.331 249.298 143.738 249.893 144.62C250.488 145.502 251.993 145.516 253.274 144.662C254.555 143.808 255.01 142.562 254.604 141.708C258.916 137.207 262.299 131.9 264.558 126.091C267.96 126.791 271.558 124.355 272.755 120.414C274.029 116.27 272.174 112.021 268.611 110.929Z" fill="#FFD71A" stroke="#263238" stroke-linecap="round" stroke-linejoin="round"/>
<path d="M271.635 119.02C271.033 121.666 268.646 123.388 266.301 122.856C263.956 122.324 262.542 119.741 263.144 117.095C263.746 114.449 266.133 112.727 268.478 113.252C270.823 113.777 272.237 116.367 271.635 119.02Z" fill="#FFD71A" stroke="#263238" stroke-linecap="round" stroke-linejoin="round"/>
<path d="M270.949 162.679C270.949 162.679 267.484 154.02 266.749 152.41C266.014 150.8 272.069 141.273 273.049 139.908C274.029 138.543 275.891 135.708 275.891 135.085C275.891 134.462 268.842 127.532 267.351 126.419C265.86 125.306 263.396 127.819 263.396 127.819C263.396 127.819 256.963 136.359 256.963 137.346C256.963 138.333 260.05 141.427 260.05 141.427C260.05 141.427 255.227 148.357 255.85 151.08C256.473 153.803 258.944 156.155 258.944 156.155L262.409 169.518L270.949 162.679Z" fill="white" stroke="#263238" stroke-linecap="round" stroke-linejoin="round"/>
<path d="M260.057 141.393C260.057 141.393 264.257 138.054 263.893 137.067C263.749 136.774 263.517 136.533 263.23 136.378C262.943 136.222 262.614 136.16 262.29 136.199" stroke="#263238" stroke-linecap="round" stroke-linejoin="round"/>
<path d="M263.032 128.897C263.403 128.897 274.288 136.072 274.043 137.297C273.827 138.202 273.495 139.075 273.056 139.894" stroke="#263238" stroke-linecap="round" stroke-linejoin="round"/>
<path d="M264.271 127.784C264.271 127.784 274.54 134.217 274.771 135.33C274.817 135.696 274.773 136.067 274.644 136.412C274.515 136.757 274.304 137.066 274.029 137.311" stroke="#263238" stroke-linecap="round" stroke-linejoin="round"/>
<path d="M265.384 126.672C265.384 126.672 276.15 133.973 275.884 135.072C275.589 135.973 275.128 136.811 274.526 137.543" stroke="#263238" stroke-linecap="round" stroke-linejoin="round"/>
<path d="M272.433 161.692L255.85 171.24C255.85 171.24 277.382 222.466 281.344 229.396C285.306 236.326 295.946 237.936 301.518 236.081C307.09 234.226 309.806 223.089 307.951 218.385C306.096 213.681 292.726 193.122 286.3 182.846C279.874 172.57 272.433 161.692 272.433 161.692Z" fill="#263238" stroke="#263238" stroke-linecap="round" stroke-linejoin="round"/>
<path d="M263.669 188.74C263.669 188.74 281.869 223.74 286.531 230.74" stroke="#616161" stroke-linecap="round" stroke-linejoin="round"/>
<path d="M273.931 165.844L299.6 205.044" stroke="#616161" stroke-linecap="round" stroke-linejoin="round"/>
<path d="M201.145 115.143V92.61C201.145 91.7411 200.8 90.9079 200.185 90.2935C199.571 89.6791 198.738 89.334 197.869 89.334H142.912C142.043 89.334 141.21 89.6791 140.596 90.2935C139.981 90.9079 139.636 91.7411 139.636 92.61V115.143C139.636 116.012 139.981 116.845 140.596 117.459C141.21 118.074 142.043 118.419 142.912 118.419H190.106L200.851 128.758L198.702 118.3C199.4 118.116 200.018 117.707 200.46 117.137C200.902 116.566 201.142 115.865 201.145 115.143Z" fill="white" stroke="#263238" stroke-linecap="round" stroke-linejoin="round"/>
<path d="M159.537 105.889C160.894 105.889 161.994 104.789 161.994 103.432C161.994 102.075 160.894 100.975 159.537 100.975C158.18 100.975 157.08 102.075 157.08 103.432C157.08 104.789 158.18 105.889 159.537 105.889Z" fill="#263238"/>
<path d="M170.387 105.889C171.744 105.889 172.844 104.789 172.844 103.432C172.844 102.075 171.744 100.975 170.387 100.975C169.03 100.975 167.93 102.075 167.93 103.432C167.93 104.789 169.03 105.889 170.387 105.889Z" fill="#263238"/>
<path d="M181.244 105.889C182.601 105.889 183.701 104.789 183.701 103.432C183.701 102.075 182.601 100.975 181.244 100.975C179.887 100.975 178.787 102.075 178.787 103.432C178.787 104.789 179.887 105.889 181.244 105.889Z" fill="#263238"/>
<path d="M104.139 247.009H219.919V242.34H104.139V247.009Z" fill="white" stroke="#263238" stroke-linecap="round" stroke-linejoin="round"/>
<path d="M86.359 247.009H187.271V242.34H86.359V247.009Z" fill="white" stroke="#263238" stroke-linecap="round" stroke-linejoin="round"/>
<path d="M84.406 234.031H180.95L170.541 160.328H73.997L84.406 234.031Z" fill="white" stroke="#263238" stroke-linecap="round" stroke-linejoin="round"/>
<path d="M80.409 234.031H176.953L166.544 160.328H70L80.409 234.031Z" fill="#263238" stroke="#263238" stroke-linecap="round" stroke-linejoin="round"/>
<path d="M109.991 199.773L100.303 247.009H125.216L134.904 199.773H109.991ZM126.889 213.773C126.849 213.972 126.741 214.15 126.584 214.277C126.427 214.405 126.23 214.474 126.028 214.473L111.916 214.333C111.784 214.332 111.654 214.3 111.535 214.242C111.417 214.183 111.313 214.098 111.232 213.994C111.151 213.89 111.094 213.769 111.066 213.64C111.037 213.511 111.039 213.377 111.069 213.248L112.343 207.949C112.383 207.751 112.491 207.573 112.648 207.445C112.805 207.318 113.002 207.249 113.204 207.249L127.323 207.382C127.455 207.385 127.584 207.417 127.701 207.476C127.819 207.536 127.922 207.62 128.002 207.724C128.083 207.828 128.139 207.949 128.167 208.078C128.195 208.206 128.193 208.339 128.163 208.467L126.889 213.773Z" fill="white" stroke="#263238" stroke-linecap="round" stroke-linejoin="round"/>
<path d="M13.475 250.397L339.325 250.397V247.009L13.475 247.009V250.397Z" fill="#263238" stroke="#263238" stroke-linecap="round" stroke-linejoin="round"/>
</svg>
