<svg width="151" height="39" viewBox="0 0 151 39" fill="none" xmlns="http://www.w3.org/2000/svg">
<g clip-path="url(#clip0_300_1465)">
<path d="M51.54 9.4C50.32 9.13 48.7099 9 46.7099 9C45.1099 9 43.68 9.27 42.41 9.82C41.15 10.36 40.0699 11.12 39.1899 12.08C38.3099 13.04 37.64 14.18 37.16 15.49C36.69 16.8 36.45 18.23 36.45 19.75C36.45 21.65 36.71 24 37.24 25.32C37.78 26.64 38.4799 27.73 39.3499 28.57C40.2199 29.41 41.25 30.02 42.43 30.41C43.6 30.8 44.82 31 46.07 31C46.8499 31 47.55 30.94 48.18 30.81C48.81 30.69 49.36 30.53 49.86 30.33C50.34 30.14 50.75 29.95 51.09 29.77C51.43 29.59 51.65 29.49 51.65 29.49C51.65 32.94 49.44 34.31 47.45 34.85C46.56 35.07 45.5199 35.18 44.32 35.18C43.12 35.18 41.99 35.07 40.83 34.84C39.67 34.62 38.57 34.3 37.9 33.99V37.01C38.72 37.29 39.53 37.54 40.66 37.75C41.75 37.95 42.9599 38.06 44.2999 38.07H44.45C44.7 38.07 44.9499 38.07 45.1899 38.05C52.6199 37.7 54.17 32.9 54.4799 30.47C54.4799 30.36 54.4999 30.26 54.5099 30.17C54.5399 29.82 54.5499 29.45 54.5499 29.06V10.17C53.7699 9.92 52.77 9.66 51.56 9.4H51.54ZM51.6399 26.72C51.0799 27.19 50.4599 27.61 49.4399 27.97C48.4199 28.34 47.2999 28.51 46.07 28.51C45.2299 28.51 44.4099 28.36 43.5999 28.07C42.7899 27.78 42.07 27.31 41.45 26.67C40.82 26.03 40.3099 25.2 39.9199 24.18C39.5299 23.16 39.33 21.21 39.33 19.78C39.33 18.55 39.5 17.43 39.83 16.41C40.16 15.39 40.65 14.52 41.29 13.78C41.93 13.03 42.7 12.46 43.61 12.06C44.51 11.66 45.56 11.45 46.72 11.45C48.11 11.45 49.19 11.51 49.95 11.63C50.7 11.76 51.15 11.89 51.63 12.03V26.7L51.6399 26.72Z" fill="#070600"/>
<path d="M11.34 11.27V8.96998H2.89V2.47998L0 2.98998V22.45C0 23.91 0.11 25.16 0.34 26.22C0.56 27.28 0.95 28.17 1.49 28.88C2.03 29.59 2.75 30.12 3.67 30.47C4.57 30.82 5.7 31 7.04 31C8.18 31 9.24 30.83 10.22 30.52C10.65 30.38 11.03 30.24 11.34 30.11V27.54C10.98 27.72 10.52 27.93 9.96 28.14C9.27 28.4 8.35 28.53 7.2 28.53C6.53 28.53 6.08 28.46 5.52 28.32C4.96 28.18 4.48 27.91 4.1 27.49C3.71 27.07 3.41 26.48 3.2 25.71C3 24.95 2.89 23.95 2.89 22.72V11.29H11.35L11.34 11.27Z" fill="#070600"/>
<path d="M33.56 19.94C33.56 21.6 33.32 23.12 32.84 24.48C32.36 25.85 31.7 27 30.84 27.96C29.98 28.92 28.96 29.66 27.79 30.19C26.62 30.72 25.32 30.99 23.9 30.99C22.48 30.99 21.18 30.72 20.01 30.19C18.84 29.66 17.82 28.91 16.96 27.96C16.1 27.01 15.43 25.85 14.95 24.48C14.47 23.12 14.23 21.6 14.23 19.94C14.23 18.28 14.47 16.76 14.95 15.4C15.43 14.04 16.1 12.87 16.96 11.9C17.82 10.93 18.84 10.18 20.01 9.64997C21.18 9.11997 22.48 8.84998 23.9 8.84998C25.32 8.84998 26.61 9.11997 27.79 9.64997C28.96 10.18 29.98 10.93 30.84 11.9C31.7 12.87 32.37 14.04 32.84 15.4C33.32 16.77 33.56 18.28 33.56 19.94ZM30.67 19.94C30.67 17.29 30.12 15.18 28.89 13.62C27.66 12.05 26 11.27 23.9 11.27C21.8 11.27 20.13 12.05 18.91 13.62C17.68 15.19 17.13 17.3 17.13 19.94C17.13 22.58 17.68 24.69 18.91 26.24C20.14 27.8 21.8 28.57 23.9 28.57C26 28.57 27.67 27.79 28.89 26.24C30.12 24.68 30.67 22.58 30.67 19.94Z" fill="#070600"/>
<path d="M75.9099 15.48C75.4299 14.13 74.7699 12.97 73.9099 12.01C73.0599 11.05 72.0399 10.3 70.8699 9.76998C69.7099 9.23998 68.4199 8.97998 67.0099 8.97998C65.5999 8.97998 64.3199 9.23998 63.1499 9.76998C61.9799 10.3 60.9799 11.05 60.1099 12.01C59.2599 12.97 58.5899 14.13 58.1199 15.48C57.6399 16.84 57.3999 18.35 57.3999 20C57.3999 21.65 57.6399 23.16 58.1199 24.52C58.5899 25.88 59.2499 27.03 60.1099 27.97C60.9699 28.93 61.9799 29.66 63.1499 30.19C64.3199 30.72 65.6099 30.99 67.0099 30.99C68.4099 30.99 69.7099 30.72 70.8699 30.19C72.0399 29.66 73.0499 28.93 73.9099 27.97C74.7599 27.02 75.4299 25.87 75.9099 24.52C76.3899 23.16 76.6199 21.65 76.6199 20C76.6199 18.35 76.3899 16.84 75.9099 15.48ZM68.6699 26.43L66.0699 20.53L60.1599 17.92L71.7899 14.81L68.6699 26.43Z" fill="#070600"/>
<path d="M101.9 14.16V8.97002H94.4099V1.89001L88.1699 3.00001V21.99C88.1699 23.42 88.2999 24.22 88.5599 25.38C88.8299 26.56 89.2999 27.55 89.9599 28.37C90.6399 29.19 91.5199 29.84 92.6399 30.3C93.7499 30.76 95.1699 30.99 96.8599 30.99C98.1999 30.99 99.3299 30.88 100.25 30.65C100.83 30.51 101.37 30.36 101.88 30.19V25.51C101.29 25.74 100.64 25.91 99.9299 26.04C99.2199 26.17 98.5299 26.22 97.8599 26.22C96.4699 26.22 95.5399 25.83 95.0799 25.05C94.6199 24.27 94.3899 23.22 94.3899 21.91V14.16H101.88H101.9Z" fill="#070600"/>
<path d="M127.94 30.99H121.7V8.96997H127.94V30.99Z" fill="#070600"/>
<path d="M127.94 3.08C127.94 4.04 127.63 4.79 127.01 5.34C126.39 5.89 125.66 6.16 124.82 6.16C123.98 6.16 123.25 5.89 122.63 5.34C122.01 4.79 121.7 4.04 121.7 3.08C121.7 2.12 122.01 1.37 122.63 0.82C123.25 0.27 123.98 0 124.82 0C125.66 0 126.39 0.28 127.01 0.82C127.63 1.37 127.94 2.12 127.94 3.08Z" fill="#070600"/>
<path d="M118.82 10.57V16.07C116.07 14.67 113.35 14.36 111.04 14.5V30.98H104.8V10.57C104.8 10.57 111.78 6.96002 118.82 10.57Z" fill="#070600"/>
<path d="M149.75 15.45C149.25 14.08 148.54 12.92 147.6 11.97C146.66 11.02 145.51 10.28 144.14 9.75998C142.87 9.26998 141.43 9.02998 139.84 8.98998C139.73 8.98998 139.61 8.97998 139.48 8.97998C135.6 8.97998 130.83 10.55 130.83 10.55V38.06H137.07V30.1C137.74 30.4 138.2 30.62 138.92 30.78C139.64 30.94 140.42 31.02 141.25 31.02C142.75 31.02 144.08 30.75 145.23 30.22C146.38 29.68 147.35 28.93 148.13 27.97C148.91 27 149.5 25.85 149.9 24.51C150.3 23.17 150.5 21.68 150.5 20.05C150.5 18.42 150.25 16.83 149.76 15.46L149.75 15.45ZM140.12 25.94C139.5 25.94 138.89 25.86 138.29 25.7C137.68 25.54 137.44 25.34 137.06 25.1V14.28C137.35 14.23 137.49 14.18 137.94 14.14C138.4 14.1 138.89 14.08 139.43 14.08C141.06 14.08 142.3 14.64 143.13 15.75C143.96 16.86 144.38 18.34 144.38 20.19C144.38 24.02 142.96 25.94 140.12 25.94Z" fill="#070600"/>
</g>
<defs>
<clipPath id="clip0_300_1465">
<rect width="150.5" height="38.06" fill="white"/>
</clipPath>
</defs>
</svg>
