<svg width="95" height="24" viewBox="0 0 95 24" fill="none" xmlns="http://www.w3.org/2000/svg">
<g clip-path="url(#clip0_365_6596)">
<path d="M32.5004 5.92753C31.7311 5.75727 30.7158 5.67529 29.4546 5.67529C28.4457 5.67529 27.544 5.84555 26.7431 6.19237C25.9486 6.53289 25.2676 7.01213 24.7127 7.61749C24.1577 8.22285 23.7353 8.94171 23.4326 9.76778C23.1362 10.5938 22.9849 11.4956 22.9849 12.4541C22.9849 13.6522 23.1488 15.134 23.483 15.9664C23.8235 16.7988 24.2649 17.4861 24.8136 18.0158C25.3622 18.5455 26.0117 18.9302 26.7558 19.1761C27.4935 19.422 28.2628 19.5481 29.0511 19.5481C29.5429 19.5481 29.9843 19.5103 30.3816 19.4283C30.7789 19.3526 31.1257 19.2518 31.441 19.1256C31.7437 19.0058 32.0022 18.886 32.2166 18.7725C32.431 18.659 32.5697 18.5959 32.5697 18.5959C32.5697 20.7715 31.1761 21.6354 29.9213 21.9759C29.3601 22.1146 28.7043 22.184 27.9476 22.184C27.1909 22.184 26.4783 22.1146 25.7468 21.9696C25.0153 21.8308 24.3217 21.6291 23.8992 21.4336V23.3379C24.4163 23.5145 24.9271 23.6721 25.6396 23.8046C26.327 23.9307 27.09 24 27.9349 24.0063H28.0295C28.1872 24.0063 28.3448 24.0063 28.4962 23.9937C33.1814 23.773 34.1588 20.7462 34.3543 19.2139C34.3543 19.1446 34.3669 19.0815 34.3732 19.0247C34.3921 18.804 34.3984 18.5707 34.3984 18.3248V6.41308C33.9066 6.25543 33.276 6.09148 32.513 5.92753H32.5004ZM32.5634 16.8492C32.2103 17.1456 31.8193 17.4104 31.1761 17.6375C30.5329 17.8708 29.8267 17.978 29.0511 17.978C28.5214 17.978 28.0043 17.8834 27.4935 17.7005C26.9828 17.5176 26.5287 17.2213 26.1378 16.8177C25.7405 16.4141 25.4189 15.8907 25.173 15.2475C24.9271 14.6044 24.8009 13.3747 24.8009 12.473C24.8009 11.6974 24.9081 10.9911 25.1162 10.3479C25.3243 9.70472 25.6333 9.15611 26.0369 8.68948C26.4405 8.21654 26.926 7.85711 27.4998 7.60488C28.0674 7.35264 28.7295 7.22022 29.461 7.22022C30.3375 7.22022 31.0185 7.25806 31.4977 7.33373C31.9707 7.4157 32.2544 7.49768 32.5571 7.58596V16.8366L32.5634 16.8492Z" fill="#FDFEFE"/>
<path d="M7.15081 7.10667V5.65633H1.82239V1.56384L0 1.88544V14.1566C0 15.0772 0.0693642 15.8655 0.214398 16.5339C0.353127 17.2023 0.599054 17.7635 0.939569 18.2112C1.28008 18.659 1.7341 18.9932 2.31424 19.2139C2.88177 19.4346 3.59432 19.5481 4.43931 19.5481C5.15817 19.5481 5.82659 19.4409 6.44456 19.2454C6.71571 19.1571 6.95533 19.0688 7.15081 18.9869V17.3663C6.9238 17.4798 6.63374 17.6122 6.28061 17.7446C5.84551 17.9086 5.26537 17.9905 4.5402 17.9905C4.11771 17.9905 3.83395 17.9464 3.48082 17.8581C3.12769 17.7698 2.82501 17.5996 2.58539 17.3347C2.33946 17.0699 2.15029 16.6978 2.01787 16.2123C1.89175 15.733 1.82239 15.1025 1.82239 14.3268V7.11928H7.15712L7.15081 7.10667Z" fill="#FDFEFE"/>
<path d="M21.1623 12.5737C21.1623 13.6205 21.011 14.579 20.7083 15.4366C20.4056 16.3005 19.9894 17.0257 19.4471 17.631C18.9048 18.2364 18.2616 18.703 17.5239 19.0372C16.7861 19.3714 15.9663 19.5417 15.0709 19.5417C14.1755 19.5417 13.3557 19.3714 12.6179 19.0372C11.8801 18.703 11.2369 18.2301 10.6946 17.631C10.1523 17.032 9.72984 16.3005 9.42716 15.4366C9.12448 14.579 8.97314 13.6205 8.97314 12.5737C8.97314 11.527 9.12448 10.5685 9.42716 9.71089C9.72984 8.85329 10.1523 8.11551 10.6946 7.50384C11.2369 6.89218 11.8801 6.41924 12.6179 6.08503C13.3557 5.75082 14.1755 5.58057 15.0709 5.58057C15.9663 5.58057 16.7798 5.75082 17.5239 6.08503C18.2616 6.41924 18.9048 6.89218 19.4471 7.50384C19.9894 8.11551 20.4119 8.85329 20.7083 9.71089C21.011 10.5748 21.1623 11.527 21.1623 12.5737ZM19.3399 12.5737C19.3399 10.9027 18.9931 9.57216 18.2175 8.58845C17.4419 7.59843 16.3951 7.10658 15.0709 7.10658C13.7467 7.10658 12.6936 7.59843 11.9243 8.58845C11.1487 9.57846 10.8018 10.909 10.8018 12.5737C10.8018 14.2385 11.1487 15.569 11.9243 16.5464C12.6999 17.5301 13.7467 18.0157 15.0709 18.0157C16.3951 18.0157 17.4482 17.5238 18.2175 16.5464C18.9931 15.5627 19.3399 14.2385 19.3399 12.5737Z" fill="#FDFEFE"/>
<path d="M47.8677 9.76139C47.565 8.9101 47.1488 8.17863 46.6065 7.57327C46.0705 6.96791 45.4273 6.49497 44.6895 6.16076C43.958 5.82655 43.1446 5.6626 42.2555 5.6626C41.3663 5.6626 40.5592 5.82655 39.8214 6.16076C39.0836 6.49497 38.453 6.96791 37.9044 7.57327C37.3684 8.17863 36.9459 8.9101 36.6496 9.76139C36.3469 10.619 36.1956 11.5712 36.1956 12.6116C36.1956 13.6521 36.3469 14.6043 36.6496 15.4619C36.9459 16.3195 37.3621 17.0446 37.9044 17.6374C38.4467 18.2427 39.0836 18.7031 39.8214 19.0373C40.5592 19.3715 41.3726 19.5417 42.2555 19.5417C43.1383 19.5417 43.958 19.3715 44.6895 19.0373C45.4273 18.7031 46.0642 18.2427 46.6065 17.6374C47.1425 17.0383 47.565 16.3132 47.8677 15.4619C48.1703 14.6043 48.3154 13.6521 48.3154 12.6116C48.3154 11.5712 48.1703 10.619 47.8677 9.76139ZM43.3022 16.6663L41.6627 12.9458L37.936 11.3L45.2697 9.3389L43.3022 16.6663Z" fill="#FFD200"/>
<path d="M64.2565 8.92915V5.65642H59.5335V1.19189L55.5986 1.89184V13.8666C55.5986 14.7684 55.6806 15.2728 55.8446 16.0043C56.0148 16.7484 56.3112 17.3727 56.7274 17.8897C57.1562 18.4068 57.7111 18.8167 58.4173 19.1068C59.1173 19.3968 60.0127 19.5419 61.0784 19.5419C61.9234 19.5419 62.6359 19.4725 63.2161 19.3275C63.5818 19.2392 63.9223 19.1446 64.2439 19.0374V16.0863C63.8719 16.2313 63.462 16.3385 63.0143 16.4205C62.5666 16.5025 62.1315 16.534 61.709 16.534C60.8325 16.534 60.246 16.2881 59.956 15.7962C59.6659 15.3043 59.5209 14.6422 59.5209 13.8162V8.92915H64.2439H64.2565Z" fill="#FDFEFE"/>
<path d="M80.6768 19.5418H76.7419V5.65637H80.6768V19.5418Z" fill="#FDFEFE"/>
<path d="M80.6768 1.9422C80.6768 2.54756 80.4813 3.02049 80.0903 3.36731C79.6994 3.71414 79.2391 3.88439 78.7094 3.88439C78.1797 3.88439 77.7193 3.71414 77.3284 3.36731C76.9374 3.02049 76.7419 2.54756 76.7419 1.9422C76.7419 1.33684 76.9374 0.863899 77.3284 0.517078C77.7193 0.170257 78.1797 0 78.7094 0C79.2391 0 79.6994 0.176563 80.0903 0.517078C80.4813 0.863899 80.6768 1.33684 80.6768 1.9422Z" fill="#FDFEFE"/>
<path d="M74.926 6.6653V10.1335C73.1919 9.25069 71.4767 9.05521 70.02 9.14349V19.5355H66.0852V6.6653C66.0852 6.6653 70.4867 4.38889 74.926 6.6653Z" fill="#FDFEFE"/>
<path d="M94.4299 9.74247C94.1146 8.87857 93.6669 8.1471 93.0742 7.54804C92.4814 6.94899 91.7562 6.48236 90.8923 6.15445C90.0915 5.84547 89.1834 5.69413 88.1808 5.6689C88.1115 5.6689 88.0358 5.6626 87.9538 5.6626C85.5071 5.6626 82.4993 6.65261 82.4993 6.65261V24H86.4341V18.9805C86.8566 19.1697 87.1467 19.3084 87.6007 19.4093C88.0547 19.5102 88.5466 19.5607 89.0699 19.5607C90.0158 19.5607 90.8545 19.3904 91.5797 19.0562C92.3048 18.7157 92.9165 18.2427 93.4084 17.6374C93.9002 17.0257 94.2723 16.3005 94.5245 15.4556C94.7767 14.6106 94.9028 13.671 94.9028 12.6432C94.9028 11.6153 94.7452 10.6127 94.4362 9.74878L94.4299 9.74247ZM88.3574 16.3573C87.9664 16.3573 87.5818 16.3068 87.2034 16.206C86.8188 16.1051 86.6674 15.9789 86.4278 15.8276V9.00469C86.6107 8.97316 86.699 8.94163 86.9827 8.91641C87.2728 8.89118 87.5818 8.87857 87.9223 8.87857C88.9501 8.87857 89.7321 9.2317 90.2554 9.93165C90.7788 10.6316 91.0437 11.5649 91.0437 12.7314C91.0437 15.1466 90.1482 16.3573 88.3574 16.3573Z" fill="#FDFEFE"/>
</g>
<defs>
<clipPath id="clip0_365_6596">
<rect width="94.9028" height="24" fill="white"/>
</clipPath>
</defs>
</svg>
