<svg width="350" height="350" viewBox="0 0 350 350" fill="none" xmlns="http://www.w3.org/2000/svg">
<path d="M19.355 302.904H324.261" stroke="#263238" stroke-miterlimit="10"/>
<path d="M126.7 146.049L118.811 185.249C115.269 202.854 101.234 217.12 87.465 217.12H77.602C77.196 217.12 76.79 217.12 76.391 217.085C63.357 216.301 55.643 202.336 59.087 185.249L66.962 146.049C70.392 129.018 83.643 115.116 96.971 114.22C97.4376 114.192 97.8856 114.178 98.315 114.178H108.15C121.926 114.178 130.2 128.444 126.7 146.049Z" stroke="#263238" stroke-miterlimit="10"/>
<path d="M112.574 158.572L107.604 179.726C105.371 189.225 95.865 196.925 86.366 196.925H79.583H78.743C69.748 196.484 64.26 188.966 66.43 179.747L71.4 158.572C73.563 149.381 82.53 141.877 91.7 141.394C92.008 141.394 92.316 141.394 92.624 141.394H99.4C108.913 141.401 114.8 149.101 112.574 158.572Z" fill="white" stroke="#263238" stroke-miterlimit="10"/>
<path d="M104.027 158.572L99.057 179.726C96.901 188.917 87.927 196.421 78.757 196.904C69.762 196.463 64.274 188.945 66.444 179.726L71.4 158.572C73.563 149.381 82.53 141.877 91.7 141.394C100.709 141.835 106.19 149.353 104.027 158.572Z" fill="white" stroke="#263238" stroke-miterlimit="10"/>
<path d="M239.512 146.049L231.623 185.249C228.081 202.854 214.046 217.12 200.277 217.12H190.435C190.029 217.12 189.63 217.12 189.224 217.085C176.197 216.266 168.476 202.336 171.92 185.249L179.795 146.049C183.225 129.018 196.476 115.116 209.804 114.22C210.271 114.192 210.719 114.178 211.148 114.178H220.983C234.759 114.178 243.054 128.444 239.512 146.049Z" stroke="#263238" stroke-miterlimit="10"/>
<path d="M225.4 158.571L220.43 179.725C218.197 189.224 208.691 196.924 199.192 196.924H192.409H191.569C182.574 196.483 177.086 188.965 179.256 179.746L184.219 158.592C186.382 149.401 195.356 141.897 204.519 141.414C204.827 141.414 205.135 141.414 205.443 141.414H212.226C221.746 141.4 227.633 149.1 225.4 158.571Z" fill="white" stroke="#263238" stroke-miterlimit="10"/>
<path d="M216.86 158.572L211.89 179.726C209.734 188.917 200.76 196.421 191.59 196.904C182.595 196.463 177.107 188.945 179.277 179.726L184.24 158.572C186.403 149.381 195.377 141.877 204.54 141.394C213.542 141.835 219.023 149.353 216.86 158.572Z" fill="white" stroke="#263238" stroke-miterlimit="10"/>
<path d="M61.488 111.776C61.488 111.776 40.194 185.626 36.113 237.3C36.113 237.3 36.113 237.377 36.078 237.531C35.7164 239.736 35.839 241.993 36.4372 244.146C37.0353 246.299 38.0948 248.296 39.542 249.998C40.9893 251.7 42.7896 253.067 44.8181 254.004C46.8466 254.941 49.0546 255.425 51.289 255.423H106.155C111.429 255.428 116.517 253.472 120.431 249.937C124.345 246.402 126.806 241.54 127.337 236.292C131.797 193.65 140.234 151.518 152.537 110.446" stroke="#263238" stroke-miterlimit="10"/>
<path d="M171.129 111.776C171.129 111.776 149.835 185.626 145.754 237.3L145.712 237.531C145.35 239.736 145.473 241.994 146.072 244.148C146.67 246.301 147.73 248.298 149.178 250C150.626 251.703 152.428 253.07 154.457 254.006C156.486 254.943 158.695 255.426 160.93 255.423H213.094C219.098 255.421 224.889 253.196 229.349 249.178C233.81 245.159 236.625 239.631 237.251 233.66C241.795 191.919 250.143 150.681 262.192 110.46" stroke="#263238" stroke-miterlimit="10"/>
<path d="M22.792 110.649H324.149" stroke="#263238" stroke-miterlimit="10"/>
<path d="M30.03 103.859H331.387" stroke="#263238" stroke-miterlimit="10"/>
<path d="M60.347 64.9463H326.865" stroke="#263238" stroke-miterlimit="10"/>
<path d="M110.117 64.7783C110.117 64.7783 101.311 90.1953 67.375 103.775" stroke="#263238" stroke-miterlimit="10"/>
<path d="M214.305 64.7783C214.305 64.7783 205.506 90.1953 171.605 103.775" stroke="#263238" stroke-miterlimit="10"/>
<path d="M318.5 64.7783C318.5 64.7783 309.701 90.1953 275.765 103.775" stroke="#263238" stroke-miterlimit="10"/>
<path d="M178.115 75.3694H147.546C146.188 75.3694 145.558 74.2634 146.146 72.9054C146.462 72.2168 146.956 71.6253 147.578 71.1921C148.2 70.7588 148.926 70.4997 149.681 70.4414H180.25C181.608 70.4414 182.231 71.5404 181.65 72.9054C181.332 73.5922 180.837 74.1822 180.215 74.6151C179.594 75.048 178.87 75.3083 178.115 75.3694Z" stroke="#263238" stroke-miterlimit="10"/>
<path d="M279.433 75.3694H248.864C247.499 75.3694 246.876 74.2634 247.464 72.9054C247.78 72.2168 248.274 71.6253 248.896 71.1921C249.518 70.7588 250.244 70.4997 250.999 70.4414H281.561C282.926 70.4414 283.549 71.5404 282.961 72.9054C282.643 73.5913 282.149 74.1806 281.529 74.6134C280.91 75.0463 280.186 75.3071 279.433 75.3694Z" stroke="#263238" stroke-miterlimit="10"/>
<path d="M75.999 106.113C75.999 106.113 74.088 109.081 73.241 109.508" stroke="#263238" stroke-miterlimit="10"/>
<path d="M77.7 106.113C77.7 106.113 75.796 109.081 74.942 109.508" stroke="#263238" stroke-miterlimit="10"/>
<path d="M79.394 106.113C79.394 106.113 77.483 109.081 76.636 109.508" stroke="#263238" stroke-miterlimit="10"/>
<path d="M81.088 106.113C81.088 106.113 79.177 109.081 78.33 109.508" stroke="#263238" stroke-miterlimit="10"/>
<path d="M82.782 106.113C82.782 106.113 80.878 109.081 80.024 109.508" stroke="#263238" stroke-miterlimit="10"/>
<path d="M84.483 106.113C84.483 106.113 82.572 109.081 81.725 109.508" stroke="#263238" stroke-miterlimit="10"/>
<path d="M86.177 106.113C86.177 106.113 84.266 109.081 83.419 109.508" stroke="#263238" stroke-miterlimit="10"/>
<path d="M87.871 106.113C87.871 106.113 85.967 109.081 85.12 109.508" stroke="#263238" stroke-miterlimit="10"/>
<path d="M89.6 106.113C89.6 106.113 87.689 109.081 86.842 109.508" stroke="#263238" stroke-miterlimit="10"/>
<path d="M91.266 106.113C91.266 106.113 89.355 109.081 88.508 109.508" stroke="#263238" stroke-miterlimit="10"/>
<path d="M92.967 106.113C92.967 106.113 91.056 109.081 90.209 109.508" stroke="#263238" stroke-miterlimit="10"/>
<path d="M94.661 106.113C94.661 106.113 92.75 109.081 91.903 109.508" stroke="#263238" stroke-miterlimit="10"/>
<path d="M96.355 106.113C96.355 106.113 94.451 109.081 93.597 109.508" stroke="#263238" stroke-miterlimit="10"/>
<path d="M98.056 106.113C98.056 106.113 96.145 109.081 95.298 109.508" stroke="#263238" stroke-miterlimit="10"/>
<path d="M99.75 106.113C99.75 106.113 97.839 109.081 96.992 109.508" stroke="#263238" stroke-miterlimit="10"/>
<path d="M101.444 106.113C101.444 106.113 99.54 109.081 98.686 109.508" stroke="#263238" stroke-miterlimit="10"/>
<path d="M103.145 106.113C103.145 106.113 101.234 109.081 100.387 109.508" stroke="#263238" stroke-miterlimit="10"/>
<path d="M104.839 106.113C104.839 106.113 102.928 109.081 102.081 109.508" stroke="#263238" stroke-miterlimit="10"/>
<path d="M106.533 106.113C106.533 106.113 104.629 109.081 103.782 109.508" stroke="#263238" stroke-miterlimit="10"/>
<path d="M108.234 106.113C108.234 106.113 106.323 109.081 105.476 109.508" stroke="#263238" stroke-miterlimit="10"/>
<path d="M109.9 106.113C109.9 106.113 107.989 109.081 107.142 109.508" stroke="#263238" stroke-miterlimit="10"/>
<path d="M111.629 106.113C111.629 106.113 109.718 109.081 108.871 109.508" stroke="#263238" stroke-miterlimit="10"/>
<path d="M113.323 106.113C113.323 106.113 111.412 109.081 110.565 109.508" stroke="#263238" stroke-miterlimit="10"/>
<path d="M115.017 106.113C115.017 106.113 113.113 109.081 112.259 109.508" stroke="#263238" stroke-miterlimit="10"/>
<path d="M116.718 106.113C116.718 106.113 114.807 109.081 113.96 109.508" stroke="#263238" stroke-miterlimit="10"/>
<path d="M118.412 106.113C118.412 106.113 116.501 109.081 115.654 109.508" stroke="#263238" stroke-miterlimit="10"/>
<path d="M120.106 106.113C120.106 106.113 118.202 109.081 117.355 109.508" stroke="#263238" stroke-miterlimit="10"/>
<path d="M121.8 106.113C121.8 106.113 119.889 109.081 119.042 109.508" stroke="#263238" stroke-miterlimit="10"/>
<path d="M123.501 106.113C123.501 106.113 121.59 109.081 120.743 109.508" stroke="#263238" stroke-miterlimit="10"/>
<path d="M125.195 106.113C125.195 106.113 123.291 109.081 122.444 109.508" stroke="#263238" stroke-miterlimit="10"/>
<path d="M126.896 106.113C126.896 106.113 124.985 109.081 124.138 109.508" stroke="#263238" stroke-miterlimit="10"/>
<path d="M128.59 106.113C128.59 106.113 126.686 109.081 125.832 109.508" stroke="#263238" stroke-miterlimit="10"/>
<path d="M130.291 106.113C130.291 106.113 128.38 109.081 127.533 109.508" stroke="#263238" stroke-miterlimit="10"/>
<path d="M131.985 106.113C131.985 106.113 130.074 109.081 129.227 109.508" stroke="#263238" stroke-miterlimit="10"/>
<path d="M133.7 106.113C133.7 106.113 131.796 109.081 130.942 109.508" stroke="#263238" stroke-miterlimit="10"/>
<path d="M135.38 106.113C135.38 106.113 133.469 109.081 132.622 109.508" stroke="#263238" stroke-miterlimit="10"/>
<path d="M137.074 106.113C137.074 106.113 135.163 109.081 134.316 109.508" stroke="#263238" stroke-miterlimit="10"/>
<path d="M138.768 106.113C138.768 106.113 136.864 109.081 136.017 109.508" stroke="#263238" stroke-miterlimit="10"/>
<path d="M140.469 106.113C140.469 106.113 138.558 109.081 137.711 109.508" stroke="#263238" stroke-miterlimit="10"/>
<path d="M142.163 106.113C142.163 106.113 140.252 109.081 139.405 109.508" stroke="#263238" stroke-miterlimit="10"/>
<path d="M143.857 106.113C143.857 106.113 141.953 109.081 141.106 109.508" stroke="#263238" stroke-miterlimit="10"/>
<path d="M145.558 106.113C145.558 106.113 143.647 109.081 142.8 109.508" stroke="#263238" stroke-miterlimit="10"/>
<path d="M147.252 106.113C147.252 106.113 145.348 109.081 144.494 109.508" stroke="#263238" stroke-miterlimit="10"/>
<path d="M185.64 106.113C185.64 106.113 183.729 109.081 182.882 109.508" stroke="#263238" stroke-miterlimit="10"/>
<path d="M187.334 106.113C187.334 106.113 185.423 109.081 184.576 109.508" stroke="#263238" stroke-miterlimit="10"/>
<path d="M189 106.113C189 106.113 187.096 109.081 186.249 109.508" stroke="#263238" stroke-miterlimit="10"/>
<path d="M190.729 106.113C190.729 106.113 188.818 109.081 187.971 109.508" stroke="#263238" stroke-miterlimit="10"/>
<path d="M192.423 106.113C192.423 106.113 190.519 109.081 189.665 109.508" stroke="#263238" stroke-miterlimit="10"/>
<path d="M194.124 106.113C194.124 106.113 192.213 109.081 191.366 109.508" stroke="#263238" stroke-miterlimit="10"/>
<path d="M195.818 106.113C195.818 106.113 193.907 109.081 193.06 109.508" stroke="#263238" stroke-miterlimit="10"/>
<path d="M197.512 106.113C197.512 106.113 195.608 109.081 194.754 109.508" stroke="#263238" stroke-miterlimit="10"/>
<path d="M199.213 106.113C199.213 106.113 197.302 109.081 196.455 109.508" stroke="#263238" stroke-miterlimit="10"/>
<path d="M200.9 106.113C200.9 106.113 198.989 109.081 198.142 109.508" stroke="#263238" stroke-miterlimit="10"/>
<path d="M202.601 106.113C202.601 106.113 200.697 109.081 199.85 109.508" stroke="#263238" stroke-miterlimit="10"/>
<path d="M204.302 106.113C204.302 106.113 202.391 109.081 201.544 109.508" stroke="#263238" stroke-miterlimit="10"/>
<path d="M205.996 106.113C205.996 106.113 204.085 109.081 203.238 109.508" stroke="#263238" stroke-miterlimit="10"/>
<path d="M207.69 106.113C207.69 106.113 205.786 109.081 204.939 109.508" stroke="#263238" stroke-miterlimit="10"/>
<path d="M209.391 106.113C209.391 106.113 207.48 109.081 206.633 109.508" stroke="#263238" stroke-miterlimit="10"/>
<path d="M211.085 106.113C211.085 106.113 209.181 109.081 208.327 109.508" stroke="#263238" stroke-miterlimit="10"/>
<path d="M212.8 106.113C212.8 106.113 210.889 109.081 210.042 109.508" stroke="#263238" stroke-miterlimit="10"/>
<path d="M214.48 106.113C214.48 106.113 212.569 109.081 211.722 109.508" stroke="#263238" stroke-miterlimit="10"/>
<path d="M216.174 106.113C216.174 106.113 214.27 109.081 213.416 109.508" stroke="#263238" stroke-miterlimit="10"/>
<path d="M217.875 106.113C217.875 106.113 215.964 109.081 215.117 109.508" stroke="#263238" stroke-miterlimit="10"/>
<path d="M219.569 106.113C219.569 106.113 217.658 109.081 216.811 109.508" stroke="#263238" stroke-miterlimit="10"/>
<path d="M221.263 106.113C221.263 106.113 219.359 109.081 218.512 109.508" stroke="#263238" stroke-miterlimit="10"/>
<path d="M222.964 106.113C222.964 106.113 221.053 109.081 220.206 109.508" stroke="#263238" stroke-miterlimit="10"/>
<path d="M224.658 106.113C224.658 106.113 222.747 109.081 221.9 109.508" stroke="#263238" stroke-miterlimit="10"/>
<path d="M226.359 106.113C226.359 106.113 224.448 109.081 223.601 109.508" stroke="#263238" stroke-miterlimit="10"/>
<path d="M228.053 106.113C228.053 106.113 226.142 109.081 225.295 109.508" stroke="#263238" stroke-miterlimit="10"/>
<path d="M229.747 106.113C229.747 106.113 227.843 109.081 226.989 109.508" stroke="#263238" stroke-miterlimit="10"/>
<path d="M231.448 106.113C231.448 106.113 229.537 109.081 228.69 109.508" stroke="#263238" stroke-miterlimit="10"/>
<path d="M233.142 106.113C233.142 106.113 231.231 109.081 230.384 109.508" stroke="#263238" stroke-miterlimit="10"/>
<path d="M234.836 106.113C234.836 106.113 232.932 109.081 232.078 109.508" stroke="#263238" stroke-miterlimit="10"/>
<path d="M236.537 106.113C236.537 106.113 234.626 109.081 233.779 109.508" stroke="#263238" stroke-miterlimit="10"/>
<path d="M238.231 106.113C238.231 106.113 236.32 109.081 235.473 109.508" stroke="#263238" stroke-miterlimit="10"/>
<path d="M239.925 106.113C239.925 106.113 238.021 109.081 237.174 109.508" stroke="#263238" stroke-miterlimit="10"/>
<path d="M241.626 106.113C241.626 106.113 239.715 109.081 238.868 109.508" stroke="#263238" stroke-miterlimit="10"/>
<path d="M243.32 106.113C243.32 106.113 241.416 109.081 240.562 109.508" stroke="#263238" stroke-miterlimit="10"/>
<path d="M245 106.113C245 106.113 243.089 109.081 242.242 109.508" stroke="#263238" stroke-miterlimit="10"/>
<path d="M246.715 106.113C246.715 106.113 244.804 109.081 243.957 109.508" stroke="#263238" stroke-miterlimit="10"/>
<path d="M248.409 106.113C248.409 106.113 246.505 109.081 245.651 109.508" stroke="#263238" stroke-miterlimit="10"/>
<path d="M250.11 106.113C250.11 106.113 248.199 109.081 247.352 109.508" stroke="#263238" stroke-miterlimit="10"/>
<path d="M251.804 106.113C251.804 106.113 249.893 109.081 249.046 109.508" stroke="#263238" stroke-miterlimit="10"/>
<path d="M253.498 106.113C253.498 106.113 251.594 109.081 250.747 109.508" stroke="#263238" stroke-miterlimit="10"/>
<path d="M255.199 106.113C255.199 106.113 253.288 109.081 252.441 109.508" stroke="#263238" stroke-miterlimit="10"/>
<path d="M256.9 106.113C256.9 106.113 254.989 109.081 254.142 109.508" stroke="#263238" stroke-miterlimit="10"/>
<path d="M285.523 106.113C285.523 106.113 283.612 109.081 282.765 109.508" stroke="#263238" stroke-miterlimit="10"/>
<path d="M287.217 106.113C287.217 106.113 285.313 109.081 284.466 109.508" stroke="#263238" stroke-miterlimit="10"/>
<path d="M288.918 106.113C288.918 106.113 287.007 109.081 286.16 109.508" stroke="#263238" stroke-miterlimit="10"/>
<path d="M290.612 106.113C290.612 106.113 288.701 109.081 287.854 109.508" stroke="#263238" stroke-miterlimit="10"/>
<path d="M292.306 106.113C292.306 106.113 290.402 109.081 289.555 109.508" stroke="#263238" stroke-miterlimit="10"/>
<path d="M294 106.113C294 106.113 292.089 109.081 291.242 109.508" stroke="#263238" stroke-miterlimit="10"/>
<path d="M295.701 106.113C295.701 106.113 293.797 109.081 292.943 109.508" stroke="#263238" stroke-miterlimit="10"/>
<path d="M297.402 106.113C297.402 106.113 295.491 109.081 294.644 109.508" stroke="#263238" stroke-miterlimit="10"/>
<path d="M299.096 106.113C299.096 106.113 297.185 109.081 296.338 109.508" stroke="#263238" stroke-miterlimit="10"/>
<path d="M300.79 106.113C300.79 106.113 298.886 109.081 298.032 109.508" stroke="#263238" stroke-miterlimit="10"/>
<path d="M302.491 106.113C302.491 106.113 300.58 109.081 299.733 109.508" stroke="#263238" stroke-miterlimit="10"/>
<path d="M304.185 106.113C304.185 106.113 302.274 109.081 301.427 109.508" stroke="#263238" stroke-miterlimit="10"/>
<path d="M305.9 106.113C305.9 106.113 303.996 109.081 303.149 109.508" stroke="#263238" stroke-miterlimit="10"/>
<path d="M307.58 106.113C307.58 106.113 305.669 109.081 304.822 109.508" stroke="#263238" stroke-miterlimit="10"/>
<path d="M309.274 106.113C309.274 106.113 307.363 109.081 306.516 109.508" stroke="#263238" stroke-miterlimit="10"/>
<path d="M310.968 106.113C310.968 106.113 309.064 109.081 308.217 109.508" stroke="#263238" stroke-miterlimit="10"/>
<path d="M312.669 106.113C312.669 106.113 310.758 109.081 309.911 109.508" stroke="#263238" stroke-miterlimit="10"/>
<path d="M314.363 106.113C314.363 106.113 312.459 109.081 311.605 109.508" stroke="#263238" stroke-miterlimit="10"/>
<path d="M316.064 106.113C316.064 106.113 314.153 109.081 313.306 109.508" stroke="#263238" stroke-miterlimit="10"/>
<path d="M317.758 106.113C317.758 106.113 315.847 109.081 315 109.508" stroke="#263238" stroke-miterlimit="10"/>
<path d="M319.452 106.113C319.452 106.113 317.548 109.081 316.694 109.508" stroke="#263238" stroke-miterlimit="10"/>
<path d="M321.153 106.113C321.153 106.113 319.242 109.081 318.395 109.508" stroke="#263238" stroke-miterlimit="10"/>
<path d="M322.847 106.113C322.847 106.113 320.936 109.081 320.089 109.508" stroke="#263238" stroke-miterlimit="10"/>
<path d="M324.541 106.113C324.541 106.113 322.637 109.081 321.79 109.508" stroke="#263238" stroke-miterlimit="10"/>
<path d="M326.242 106.113C326.242 106.113 324.331 109.081 323.484 109.508" stroke="#263238" stroke-miterlimit="10"/>
<path d="M327.936 106.113C327.936 106.113 326.025 109.081 325.178 109.508" stroke="#263238" stroke-miterlimit="10"/>
<path d="M329.637 106.113C329.637 106.113 327.726 109.081 326.879 109.508" stroke="#263238" stroke-miterlimit="10"/>
<path d="M331.331 106.113C331.331 106.113 329.42 109.081 328.573 109.508" stroke="#263238" stroke-miterlimit="10"/>
<path d="M333.025 106.113C333.025 106.113 331.121 109.081 330.267 109.508" stroke="#263238" stroke-miterlimit="10"/>
<path d="M334.726 106.113C334.726 106.113 332.815 109.081 331.968 109.508" stroke="#263238" stroke-miterlimit="10"/>
<path d="M102.242 226.506C109.578 225.428 113.75 228.34 112.224 235.746H119.322C120.309 231.462 120.722 227.71 119.903 225.666C117.663 220.066 104.622 218.722 95.837 221.41C95.837 221.41 83.167 225.106 82.887 228.193C82.607 231.28 92.701 227.913 102.242 226.506Z" fill="white" stroke="#263238" stroke-miterlimit="10"/>
<path d="M107.1 226.506C114.436 225.428 118.608 228.34 117.082 235.746H124.18C125.167 231.462 125.58 227.71 124.768 225.666C122.521 220.066 109.48 218.722 100.702 221.41C100.702 221.41 88.025 225.106 87.745 228.193C87.465 231.28 97.545 227.913 107.1 226.506Z" fill="white" stroke="#263238" stroke-miterlimit="10"/>
<path d="M179.949 130.55H184.639C185.784 130.55 186.916 130.794 187.958 131.267C189.001 131.74 189.93 132.431 190.684 133.293C191.438 134.155 191.999 135.168 192.329 136.264C192.659 137.361 192.751 138.515 192.598 139.65C189.994 158.802 183.82 202.65 179.949 216.699C174.951 234.899 169.267 251.93 167.223 254.884H119C119 254.884 132.412 228.06 145.824 183.484C159.236 138.908 159.915 131.887 159.915 131.887L179.949 130.55Z" fill="white" stroke="#263238" stroke-miterlimit="10"/>
<path d="M174.3 130.55H178.99C180.135 130.55 181.267 130.794 182.309 131.267C183.352 131.74 184.282 132.431 185.035 133.293C185.789 134.155 186.35 135.168 186.68 136.264C187.01 137.361 187.102 138.515 186.949 139.65C184.345 158.802 178.171 202.65 174.3 216.699C169.302 234.899 163.618 251.93 161.574 254.884H113.4C113.4 254.884 126.812 228.06 140.224 183.484C153.636 138.908 154.315 131.887 154.315 131.887L174.3 130.55Z" fill="white" stroke="#263238" stroke-miterlimit="10"/>
<path d="M132.769 157.801C132.769 157.801 119.308 216.132 103.229 248.675H159.873C159.873 248.675 170.891 233.975 181.72 151.956H133.609L132.769 157.801Z" fill="#FFD71A" stroke="#263238" stroke-miterlimit="10"/>
<path d="M172.284 164.612C172.284 164.612 164.584 213.353 150.759 242.543" stroke="#263238" stroke-miterlimit="10"/>
<path d="M120.071 228.684C118.16 233.584 116.179 238.274 114.149 242.544" stroke="#263238" stroke-miterlimit="10"/>
<path d="M137.802 172.684C134.743 184.248 128.576 206.284 121.184 225.8" stroke="#263238" stroke-miterlimit="10"/>
<path d="M139.874 164.612C139.874 164.612 139.412 166.516 138.565 169.792" stroke="#263238" stroke-miterlimit="10"/>
<path d="M158.186 202.468H162.883" stroke="#263238" stroke-miterlimit="10"/>
<path d="M129.731 202.468H154.469" stroke="#263238" stroke-miterlimit="10"/>
<path d="M172.2 160.3H137.9C136.839 160.331 135.785 160.125 134.815 159.696C133.845 159.267 132.983 158.626 132.292 157.821C131.601 157.015 131.1 156.066 130.824 155.041C130.548 154.017 130.504 152.943 130.697 151.9L132.636 138.068C133.002 135.782 134.155 133.695 135.895 132.167C137.636 130.64 139.855 129.769 142.17 129.703H176.47C177.527 129.673 178.577 129.879 179.544 130.306C180.511 130.733 181.371 131.37 182.06 132.172C182.75 132.973 183.252 133.918 183.53 134.938C183.807 135.959 183.854 137.028 183.666 138.068L181.734 151.9C181.372 154.191 180.221 156.284 178.48 157.818C176.74 159.351 174.519 160.229 172.2 160.3Z" fill="white" stroke="#263238" stroke-miterlimit="10"/>
<path d="M167.692 160.3H133.392C132.331 160.331 131.277 160.125 130.307 159.696C129.337 159.267 128.475 158.626 127.784 157.821C127.093 157.015 126.592 156.066 126.316 155.041C126.04 154.017 125.996 152.944 126.189 151.9L128.1 138.124C128.466 135.838 129.619 133.751 131.359 132.223C133.1 130.696 135.319 129.825 137.634 129.759H171.934C172.997 129.718 174.055 129.916 175.031 130.338C176.007 130.761 176.875 131.397 177.573 132.2C178.27 133.002 178.778 133.952 179.06 134.977C179.341 136.002 179.389 137.078 179.2 138.124L177.268 151.956C176.892 154.244 175.73 156.329 173.982 157.852C172.234 159.376 170.01 160.241 167.692 160.3Z" fill="#FFD71A" stroke="#263238" stroke-miterlimit="10"/>
<path d="M139.944 129.759C136.007 139.495 135.616 150.305 138.838 160.3H159.6C159.6 160.3 159.201 132.937 169.778 129.731L139.944 129.759Z" fill="white" stroke="#263238" stroke-miterlimit="10"/>
<path d="M79.688 264.775L82.915 272.125L81.305 293.587L70.91 302.904H136.535V262.626L77.364 262.808L79.688 264.775Z" fill="#263238" stroke="#263238" stroke-miterlimit="10"/>
<path d="M126.448 264.775L129.675 272.125L128.058 284.487L117.67 302.904H163.541L156.73 285.026L158.165 272.125L163.541 262.626L124.117 262.808L126.448 264.775Z" fill="#545454" stroke="#263238" stroke-miterlimit="10"/>
<path d="M163.002 245.245H102.97L102.354 245.406C97.783 245.224 87.99 246.701 79.317 249.004C67.851 252.056 64.085 257.789 64.085 257.789L63.98 257.936C63.4329 258.707 63.1084 259.613 63.042 260.556C62.9756 261.499 63.1698 262.442 63.6035 263.282C64.0371 264.122 64.6935 264.826 65.5007 265.318C66.3078 265.81 67.2348 266.07 68.18 266.07C70.882 266.07 75.026 266.07 79.478 266.07H127.4L163.002 245.245Z" fill="#FFD71A" stroke="#263238" stroke-miterlimit="10"/>
<path d="M126.448 257.79C126.448 257.79 130.214 252.057 141.68 249.005C153.146 245.953 166.6 244.35 167.3 246.142C168 247.934 164.787 263.166 163.359 264.776C161.931 266.386 127.4 266.05 127.4 266.05C127.4 266.05 122.682 262.809 126.448 257.79Z" fill="white" stroke="#263238" stroke-miterlimit="10"/>
<path d="M135.898 138.32C135.898 138.32 131.376 132.342 133.476 128.31C135.576 124.278 149.156 122.71 157.549 127.085C165.942 131.46 165.284 141.4 164.5 145.6C163.716 149.8 161.112 149.478 162.568 152.222C164.024 154.966 171.766 159.166 169.666 165.137C167.566 171.108 164.661 172.886 155.946 172.403C147.231 171.92 143.997 164.003 144.48 160.132C144.963 156.261 147.875 149.632 147.224 148.19C146.573 146.748 144.641 140.273 142.87 139.629C141.099 138.985 135.898 138.32 135.898 138.32Z" fill="#263238" stroke="#263238" stroke-miterlimit="10"/>
<path d="M138.642 165.9C138.642 165.9 126.371 168.161 123.144 169.771C119.917 171.381 118.461 173.005 118.3 175.098C118.139 177.191 107.156 194.796 107.156 194.796C107.156 194.796 99.4 203.7 97.468 205.646C95.536 207.592 92.624 209.517 93.436 210.651C94.248 211.785 106.673 214.2 115.395 215.817C124.117 217.434 135.898 220.822 140.742 220.339C145.586 219.856 149.94 219.527 149.94 219.527C149.94 219.527 149.779 212.912 152.852 207.417C155.925 201.922 164.794 187.397 166.572 181.426C168.35 175.455 170.933 173.194 166.25 170.611C161.567 168.028 153.65 166.089 153.65 166.089C153.65 166.089 143.808 164.633 138.642 165.9Z" fill="white" stroke="#263238" stroke-miterlimit="10"/>
<path d="M139.3 129.599C139.3 129.599 134.939 134.926 134.939 136.704C134.939 138.482 134.778 140.414 134.134 141.709C133.49 143.004 131.229 145.909 131.551 148.17C131.873 150.431 132.356 158.341 133.168 160.273C133.98 162.205 134.778 162.373 136.556 162.051L138.334 161.729L138.656 165.929C138.656 165.929 133.973 171.095 132.195 173.839C130.417 176.583 129.29 181.749 137.361 181.105C145.432 180.461 149.471 173.678 150.927 171.256C152.383 168.834 153.671 166.09 153.671 166.09C153.285 165.721 152.995 165.264 152.827 164.757C152.658 164.251 152.617 163.711 152.705 163.185C153.027 161.407 154.315 158.663 155.932 157.529C157.549 156.395 158.676 150.914 155.288 147.68C151.9 144.446 151.088 141.38 151.088 141.38C151.088 141.38 148.988 139.441 144.788 134.919C140.588 130.397 139.3 129.599 139.3 129.599Z" fill="white" stroke="#263238" stroke-miterlimit="10"/>
<path d="M145.425 142.674L144.452 144.452C144.452 144.452 147.525 145.257 149.135 144.935" stroke="#263238" stroke-miterlimit="10"/>
<path d="M135.737 141.869L134.925 143.486L137.186 143.647" stroke="#263238" stroke-miterlimit="10"/>
<path d="M138.32 138.643L138.803 141.226C138.803 141.226 137.025 145.258 133.798 146.392C133.798 146.392 136.703 148.975 137.998 148.975" stroke="#263238" stroke-miterlimit="10"/>
<path d="M144.774 137.83C144.774 137.83 147.035 137.508 148.169 138.481" stroke="#263238" stroke-miterlimit="10"/>
<path d="M138.159 137.508C138.159 137.508 136.059 135.086 134.925 136.703" stroke="#263238" stroke-miterlimit="10"/>
<path d="M134.925 152.04C134.925 152.04 137.508 154.462 141.869 152.201" stroke="#263238" stroke-miterlimit="10"/>
<path d="M138.32 161.728L145.908 159.789L138.642 165.928L138.32 161.728Z" fill="#263238" stroke="#263238" stroke-miterlimit="10"/>
<path d="M154 149.458C154 149.458 158.361 144.936 159.488 148.002C160.615 151.068 157.717 156.724 155.939 156.563C154.771 156.413 153.66 155.967 152.712 155.268" fill="white"/>
<path d="M154 149.458C154 149.458 158.361 144.936 159.488 148.002C160.615 151.068 157.717 156.724 155.939 156.563C154.771 156.413 153.66 155.967 152.712 155.268" stroke="#263238" stroke-miterlimit="10"/>
<path d="M137.676 204.834C137.312 209.608 134.225 216.314 132.636 219.492C136.022 220.32 139.249 221.696 142.191 223.566C144.319 225.123 146.657 226.372 149.135 227.276C149.135 227.276 149.779 212.912 152.852 207.417C155.925 201.922 164.794 187.397 166.572 181.426C168.35 175.455 170.933 173.194 166.25 170.611C161.567 168.028 153.65 166.089 153.65 166.089C153.65 166.089 145.901 175.616 141.218 185.948C136.535 196.28 138.159 198.38 137.676 204.834Z" fill="#8C8C8C" stroke="#263238" stroke-miterlimit="10"/>
<path d="M118.3 175.126C118.139 177.226 107.156 194.824 107.156 194.824C107.156 194.824 99.4 203.7 97.468 205.646C95.536 207.592 92.624 209.517 93.436 210.651C94.171 211.68 104.636 213.801 113.12 215.39C114.938 213.334 116.615 211.157 118.139 208.873C119.91 205.968 122.493 203.868 121.366 199.668C120.239 195.468 120.4 191.919 125.727 183.4C129.653 177.297 133.967 171.451 138.642 165.9C138.642 165.9 126.371 168.161 123.144 169.771C119.917 171.381 118.461 173.033 118.3 175.126Z" fill="#8C8C8C" stroke="#263238" stroke-miterlimit="10"/>
<path d="M122.983 178.683C122.983 178.683 116.361 186.271 116.361 189.015C116.361 191.759 117.488 199.025 115.717 201.615C113.946 204.205 106.834 214.215 106.834 214.215" stroke="#263238" stroke-miterlimit="10"/>
<path d="M153.818 184.171L154.392 208.895L122.332 210.652V216.952C122.332 216.952 146.601 220.13 153.902 220.361C160.636 220.578 162.302 221.334 164.563 216.812C166.824 212.29 170.45 177.395 169.155 173.846C167.86 170.297 159.467 170.101 159.467 170.101" fill="#8C8C8C"/>
<path d="M153.818 184.171L154.392 208.895L122.332 210.652V216.952C122.332 216.952 146.601 220.13 153.902 220.361C160.636 220.578 162.302 221.334 164.563 216.812C166.824 212.29 170.45 177.395 169.155 173.846C167.86 170.297 159.467 170.101 159.467 170.101" stroke="#263238" stroke-miterlimit="10"/>
<path d="M96.663 211.617C99.1079 210.261 101.643 209.075 104.251 208.068C107.156 207.095 112.973 210.973 112.973 210.973C112.973 210.973 115.234 213.395 113.456 213.878C111.65 214.261 109.813 214.476 107.968 214.522C107.478 214.522 96.663 211.617 96.663 211.617Z" fill="white" stroke="#263238" stroke-miterlimit="10"/>
<path d="M122.332 210.651L120.071 211.456C120.071 211.456 114.905 210 113.134 209.517C111.363 209.034 105.7 212.1 104.573 212.422L103.446 212.744L115.395 215.817L122.332 216.944V210.651Z" fill="white" stroke="#263238" stroke-miterlimit="10"/>
<path d="M142.191 221.467C142.191 221.467 103.124 212.913 93.436 210.652C83.748 208.391 74.704 208.069 71.316 210.162C67.928 212.255 56.462 248.753 53.396 255.046C50.33 261.339 47.74 266.19 47.74 266.19C47.74 266.19 47.418 267.317 41.44 267.646C35.462 267.975 26.264 266.512 25.291 268.129C24.318 269.746 30.457 275.073 35.14 277.005C39.823 278.937 49.035 279.301 50.162 278.601C51.289 277.901 53.557 271.335 55.657 268.101C57.757 264.867 66.633 254.724 70 246.814C73.367 238.904 78.883 225.345 78.883 225.345C78.883 225.345 94.864 234.382 105.196 236.643C115.528 238.904 131.194 243.748 137.816 233.738C144.438 223.728 142.191 221.467 142.191 221.467Z" fill="white" stroke="#263238" stroke-miterlimit="10"/>
<path d="M94.724 230.51C94.724 230.51 89.397 228.088 81.326 223.566C73.255 219.044 67.76 217.588 65.667 224.532C63.574 231.476 70.7 263.396 72.8 274.05C74.9 284.704 73.283 285.677 73.283 285.677C73.283 285.677 66.178 294.392 62.146 297.787C58.114 301.182 57.141 301.175 58.912 301.819C60.683 302.463 62.146 303.758 69.734 301.98C77.322 300.202 77.322 298.109 81.844 296.17C86.366 294.231 86.359 294.392 85.554 289.709C85.0654 286.881 84.2527 284.119 83.132 281.477C82.6495 275.296 82.7033 269.085 83.293 262.913C84.266 252.252 82.789 235.837 82.789 235.837L90.216 237.937L94.724 230.51Z" fill="white" stroke="#263238" stroke-miterlimit="10"/>
<path d="M81.83 296.17C86.345 294.231 86.345 294.392 85.54 289.709C85.407 288.932 85.246 288.183 85.078 287.483C83.6079 288.831 82.0352 290.062 80.374 291.165C74.564 295.043 74.074 295.204 71.33 296.492C69.398 297.402 66.752 295.75 65.352 294.693C64.197 295.897 63.077 296.989 62.132 297.787C58.093 301.175 57.127 301.175 58.898 301.819C60.669 302.463 62.132 303.758 69.72 301.98C77.308 300.202 77.308 298.109 81.83 296.17Z" fill="#FFD71A" stroke="#263238" stroke-miterlimit="10"/>
<path d="M50.162 278.6C50.743 278.271 51.618 276.374 52.619 274.169C44.681 274.169 33.376 272.468 33.376 272.468L35.063 267.568C30.401 267.351 25.963 267.036 25.263 268.135C24.297 269.745 30.429 275.079 35.112 277.011C39.795 278.943 49.035 279.3 50.162 278.6Z" fill="#FFD71A" stroke="#263238" stroke-miterlimit="10"/>
<path d="M93.436 210.651C94.1192 216.087 93.5665 221.608 91.819 226.8C88.914 235.2 86.653 237.454 86.653 237.454C86.653 237.454 91.672 240.751 109.592 245.434C127.512 250.117 140.595 251.503 147.455 242.067C155.155 231.42 148.155 222.635 143.528 220.759C140.14 219.38 102.963 211.617 93.436 210.651Z" fill="#263238" stroke="#263238" stroke-miterlimit="10"/>
<path d="M154.406 221.41C154.406 221.41 141.736 225.106 141.456 228.193C141.176 231.28 151.256 227.913 160.804 226.506C170.352 225.099 174.545 230.433 167.804 243.614C161.063 256.795 137.795 253.995 131.908 255.955C126.021 257.915 127.708 266.329 130.221 266.049C132.734 265.769 163.317 266.049 163.317 266.049C163.317 266.049 168.084 263.809 170.884 256.795C173.684 249.781 180.684 231.28 178.458 225.666C176.232 220.052 163.184 218.722 154.406 221.41Z" fill="#263238" stroke="#263238" stroke-miterlimit="10"/>
<path d="M159.243 221.41C159.243 221.41 146.573 225.106 146.293 228.193C146.013 231.28 156.093 227.913 165.641 226.506C175.189 225.099 179.382 230.433 172.641 243.614C165.9 256.795 142.632 253.995 136.745 255.955C130.858 257.915 132.545 266.329 135.065 266.049C137.585 265.769 168.154 266.049 168.154 266.049C168.154 266.049 172.921 263.809 175.728 256.795C178.535 249.781 185.528 231.28 183.295 225.666C181.062 220.052 168 218.722 159.243 221.41Z" fill="white" stroke="#263238" stroke-miterlimit="10"/>
<path d="M241.5 130.55H246.19C247.335 130.549 248.466 130.794 249.509 131.267C250.551 131.74 251.48 132.431 252.233 133.293C252.987 134.155 253.547 135.168 253.876 136.265C254.205 137.361 254.296 138.515 254.142 139.65C251.545 158.802 245.364 202.65 241.5 216.699C236.495 234.899 230.811 251.93 228.767 254.884H180.6C180.6 254.884 194.012 228.06 207.424 183.484C220.836 138.908 221.515 131.887 221.515 131.887L241.5 130.55Z" fill="white" stroke="#263238" stroke-miterlimit="10"/>
<path d="M235.9 130.55H240.59C241.735 130.549 242.866 130.794 243.909 131.267C244.951 131.74 245.88 132.431 246.633 133.293C247.387 134.155 247.947 135.168 248.276 136.265C248.605 137.361 248.696 138.515 248.542 139.65C245.945 158.802 239.764 202.65 235.9 216.699C230.895 234.899 225.211 251.93 223.167 254.884H174.944C174.944 254.884 188.356 228.06 201.761 183.484C215.166 138.908 215.859 131.887 215.859 131.887L235.9 130.55Z" fill="white" stroke="#263238" stroke-miterlimit="10"/>
<path d="M194.313 157.801C194.313 157.801 180.852 216.132 164.773 248.675H221.424C221.424 248.675 232.435 233.975 243.264 151.956H195.153L194.313 157.801Z" fill="#FFD71A" stroke="#263238" stroke-miterlimit="10"/>
<path d="M233.142 164.612C233.142 164.612 225.442 213.353 211.617 242.543" stroke="#263238" stroke-miterlimit="10"/>
<path d="M180.929 228.683C179.018 233.583 177.03 238.273 175.007 242.543" stroke="#263238" stroke-miterlimit="10"/>
<path d="M198.66 172.683C195.601 184.247 189.434 206.283 182.042 225.799" stroke="#263238" stroke-miterlimit="10"/>
<path d="M200.732 164.612C200.732 164.612 200.27 166.516 199.423 169.792" stroke="#263238" stroke-miterlimit="10"/>
<path d="M219.044 202.468H223.741" stroke="#263238" stroke-miterlimit="10"/>
<path d="M190.589 202.468H215.327" stroke="#263238" stroke-miterlimit="10"/>
<path d="M233.723 160.3H199.423C198.363 160.33 197.31 160.123 196.34 159.693C195.371 159.264 194.51 158.623 193.82 157.818C193.13 157.012 192.629 156.063 192.353 155.039C192.078 154.015 192.035 152.943 192.227 151.9L194.159 138.068C194.538 135.791 195.698 133.717 197.438 132.201C199.179 130.685 201.393 129.822 203.7 129.759H238C239.057 129.728 240.107 129.934 241.074 130.361C242.041 130.788 242.901 131.426 243.59 132.227C244.28 133.029 244.782 133.974 245.06 134.994C245.337 136.014 245.384 137.083 245.196 138.124L243.264 151.956C242.892 154.239 241.736 156.321 239.995 157.844C238.253 159.367 236.035 160.235 233.723 160.3Z" fill="white" stroke="#263238" stroke-miterlimit="10"/>
<path d="M229.236 160.3H194.936C193.876 160.33 192.823 160.123 191.853 159.693C190.884 159.264 190.023 158.623 189.333 157.818C188.643 157.012 188.142 156.063 187.866 155.039C187.591 154.015 187.548 152.943 187.74 151.9L189.7 138.124C190.068 135.837 191.222 133.75 192.964 132.222C194.705 130.695 196.925 129.824 199.241 129.759H233.541C234.598 129.728 235.648 129.934 236.615 130.361C237.582 130.788 238.442 131.426 239.131 132.227C239.821 133.029 240.323 133.974 240.601 134.994C240.878 136.014 240.925 137.083 240.737 138.124L238.805 151.956C238.432 154.244 237.272 156.33 235.525 157.853C233.778 159.376 231.553 160.242 229.236 160.3Z" fill="#FFD71A" stroke="#263238" stroke-miterlimit="10"/>
<path d="M203.987 129.759C200.05 139.495 199.659 150.305 202.881 160.3H223.629C223.629 160.3 223.223 133 233.8 129.759H203.987Z" fill="white" stroke="#263238" stroke-miterlimit="10"/>
<path d="M141.239 264.775L144.466 272.125L142.849 284.487L132.454 302.904H198.086V262.626L138.908 262.808L141.239 264.775Z" fill="#263238" stroke="#263238" stroke-miterlimit="10"/>
<path d="M187.992 264.775L191.219 272.125L189.609 284.487L179.214 302.904H225.092L218.281 285.026L219.716 272.125L225.092 262.626L185.668 262.808L187.992 264.775Z" fill="#545454" stroke="#263238" stroke-miterlimit="10"/>
<path d="M224.553 245.245H164.5L163.884 245.406C159.306 245.224 149.513 246.701 140.847 249.004C129.374 252.056 125.615 257.789 125.615 257.789L125.503 257.936C124.956 258.707 124.631 259.613 124.565 260.556C124.499 261.499 124.693 262.442 125.127 263.282C125.56 264.122 126.217 264.826 127.024 265.318C127.831 265.81 128.758 266.07 129.703 266.07C132.412 266.07 136.556 266.07 141.001 266.07H188.902L224.553 245.245Z" fill="#FFD71A" stroke="#263238" stroke-miterlimit="10"/>
<path d="M187.992 257.789C187.992 257.789 191.758 252.056 203.224 249.004C214.69 245.952 228.137 244.349 228.851 246.141C229.565 247.933 226.345 263.165 224.91 264.775C223.475 266.385 188.916 266.049 188.916 266.049C188.916 266.049 184.233 262.808 187.992 257.789Z" fill="white" stroke="#263238" stroke-miterlimit="10"/>
<path d="M215.131 221.41C215.131 221.41 202.461 225.106 202.181 228.193C201.901 231.28 211.981 227.913 221.529 226.506C231.077 225.099 235.27 230.433 228.529 243.614C221.788 256.795 198.527 253.995 192.633 255.955C186.739 257.915 188.433 266.329 190.953 266.049C193.473 265.769 224.042 266.049 224.042 266.049C224.042 266.049 228.816 263.809 231.616 256.795C234.416 249.781 241.416 231.28 239.19 225.666C236.964 220.052 223.909 218.722 215.131 221.41Z" fill="#263238" stroke="#263238" stroke-miterlimit="10"/>
<path d="M219.968 221.41C219.968 221.41 207.298 225.106 207.018 228.193C206.738 231.28 216.818 227.913 226.366 226.506C235.914 225.099 240.107 230.433 233.366 243.614C226.625 256.795 203.357 253.995 197.47 255.955C191.583 257.915 193.27 266.329 195.783 266.049C198.296 265.769 228.879 266.049 228.879 266.049C228.879 266.049 233.646 263.809 236.446 256.795C239.246 249.781 246.246 231.28 244.02 225.666C241.794 220.052 228.746 218.722 219.968 221.41Z" fill="white" stroke="#263238" stroke-miterlimit="10"/>
<path d="M303.205 130.55H307.895C309.04 130.55 310.172 130.794 311.214 131.267C312.257 131.74 313.187 132.431 313.94 133.293C314.694 134.155 315.255 135.168 315.585 136.264C315.915 137.361 316.007 138.515 315.854 139.65C313.25 158.802 307.076 202.65 303.205 216.699C298.207 234.899 292.523 251.93 290.479 254.884H242.284C242.284 254.884 255.696 228.06 269.108 183.484C282.52 138.908 283.199 131.887 283.199 131.887L303.205 130.55Z" fill="white" stroke="#263238" stroke-miterlimit="10"/>
<path d="M297.57 130.55H302.26C303.405 130.55 304.537 130.794 305.579 131.267C306.622 131.74 307.552 132.431 308.305 133.293C309.059 134.155 309.62 135.168 309.95 136.264C310.28 137.361 310.372 138.515 310.219 139.65C307.615 158.802 301.434 202.65 297.57 216.699C292.572 234.899 286.888 251.93 284.837 254.884H236.649C236.649 254.884 250.061 228.06 263.473 183.484C276.885 138.908 277.564 131.887 277.564 131.887L297.57 130.55Z" fill="white" stroke="#263238" stroke-miterlimit="10"/>
<path d="M256.025 157.801C256.025 157.801 242.564 216.132 226.485 248.675H283.129C283.129 248.675 294.147 233.975 304.969 151.956H256.9L256.025 157.801Z" fill="#FFD71A" stroke="#263238" stroke-miterlimit="10"/>
<path d="M295.484 164.612C295.484 164.612 287.784 213.353 273.959 242.543" stroke="#263238" stroke-miterlimit="10"/>
<path d="M243.271 228.683C241.36 233.583 239.372 238.273 237.349 242.543" stroke="#263238" stroke-miterlimit="10"/>
<path d="M261.002 172.683C257.943 184.247 251.776 206.283 244.384 225.799" stroke="#263238" stroke-miterlimit="10"/>
<path d="M263.074 164.612C263.074 164.612 262.612 166.516 261.765 169.792" stroke="#263238" stroke-miterlimit="10"/>
<path d="M281.379 202.468H286.083" stroke="#263238" stroke-miterlimit="10"/>
<path d="M252.931 202.468H277.669" stroke="#263238" stroke-miterlimit="10"/>
<path d="M295.435 160.3H261.1C260.04 160.33 258.987 160.123 258.017 159.693C257.048 159.264 256.187 158.623 255.497 157.818C254.807 157.013 254.306 156.063 254.03 155.039C253.755 154.015 253.712 152.943 253.904 151.9L255.836 138.068C256.205 135.782 257.359 133.695 259.101 132.168C260.842 130.641 263.062 129.77 265.377 129.703H299.677C300.734 129.673 301.784 129.879 302.752 130.306C303.719 130.733 304.579 131.37 305.269 132.172C305.959 132.973 306.462 133.918 306.74 134.938C307.019 135.958 307.067 137.027 306.88 138.068L304.941 151.9C304.582 154.188 303.436 156.279 301.701 157.812C299.966 159.346 297.75 160.225 295.435 160.3Z" fill="white" stroke="#263238" stroke-miterlimit="10"/>
<path d="M290.948 160.301H256.648C255.588 160.331 254.535 160.123 253.565 159.694C252.596 159.265 251.735 158.624 251.045 157.818C250.355 157.013 249.854 156.064 249.578 155.04C249.303 154.016 249.26 152.943 249.452 151.901L251.384 138.069C251.753 135.782 252.907 133.696 254.649 132.169C256.39 130.642 258.61 129.77 260.925 129.704H295.225C296.285 129.676 297.338 129.886 298.307 130.318C299.276 130.75 300.136 131.393 300.823 132.201C301.511 133.008 302.01 133.959 302.283 134.984C302.556 136.009 302.596 137.082 302.4 138.125L300.461 151.957C300.09 154.235 298.938 156.314 297.202 157.836C295.467 159.359 293.256 160.23 290.948 160.301Z" fill="#FFD71A" stroke="#263238" stroke-miterlimit="10"/>
<path d="M265.405 129.759C261.468 139.495 261.077 150.305 264.299 160.3H285.047C285.047 160.3 284.648 132.937 295.218 129.731L265.405 129.759Z" fill="white" stroke="#263238" stroke-miterlimit="10"/>
<path d="M202.944 264.775L206.171 272.125L204.561 284.487L194.166 302.904H259.791V262.626L200.613 262.808L202.944 264.775Z" fill="#263238" stroke="#263238" stroke-miterlimit="10"/>
<path d="M249.704 264.775L252.931 272.125L251.314 284.487L240.926 302.904H286.797L279.986 285.026L281.421 272.125L286.797 262.626L247.373 262.808L249.704 264.775Z" fill="#545454" stroke="#263238" stroke-miterlimit="10"/>
<path d="M286.258 245.245H226.226L225.61 245.406C221.039 245.224 211.246 246.701 202.573 249.004C191.107 252.056 187.341 257.789 187.341 257.789L187.229 257.936C186.682 258.707 186.357 259.613 186.291 260.556C186.225 261.499 186.419 262.442 186.853 263.282C187.286 264.122 187.942 264.826 188.75 265.318C189.557 265.81 190.484 266.07 191.429 266.07C194.131 266.07 198.275 266.07 202.727 266.07H250.6L286.258 245.245Z" fill="#FFD71A" stroke="#263238" stroke-miterlimit="10"/>
<path d="M249.704 257.789C249.704 257.789 253.463 252.056 264.936 249.004C276.409 245.952 289.842 244.349 290.563 246.141C291.284 247.933 288.05 263.165 286.615 264.775C285.18 266.385 250.6 266.049 250.6 266.049C250.6 266.049 245.938 262.808 249.704 257.789Z" fill="white" stroke="#263238" stroke-miterlimit="10"/>
<path d="M276.836 221.41C276.836 221.41 264.166 225.106 263.886 228.193C263.606 231.28 273.686 227.913 283.234 226.506C292.782 225.099 296.975 230.433 290.234 243.614C283.493 256.795 260.225 253.995 254.338 255.955C248.451 257.915 250.138 266.329 252.651 266.049C255.164 265.769 285.747 266.049 285.747 266.049C285.747 266.049 290.514 263.809 293.321 256.795C296.128 249.781 303.121 231.28 300.888 225.666C298.655 220.052 285.6 218.722 276.836 221.41Z" fill="#263238" stroke="#263238" stroke-miterlimit="10"/>
<path d="M281.673 221.41C281.673 221.41 269.003 225.106 268.723 228.193C268.443 231.28 278.523 227.913 288.071 226.506C297.619 225.099 301.819 230.433 295.071 243.614C288.323 256.795 265.062 253.995 259.175 255.955C253.288 257.915 254.975 266.329 257.495 266.049C260.015 265.769 290.584 266.049 290.584 266.049C290.584 266.049 295.351 263.809 298.158 256.795C300.965 249.781 307.958 231.28 305.725 225.666C303.492 220.052 290.458 218.722 281.673 221.41Z" fill="white" stroke="#263238" stroke-miterlimit="10"/>
</svg>
